<?xml version="1.0" encoding="iso-8859-1"?>
<!-- Generator: Adobe Illustrator 19.0.0, SVG Export Plug-In . SVG Version: 6.00 Build 0)  -->
<svg version="1.1" id="Layer_1" xmlns="http://www.w3.org/2000/svg" xmlns:xlink="http://www.w3.org/1999/xlink" x="0px" y="0px"
	 viewBox="0 0 502 502" style="enable-background:new 0 0 502 502;" xml:space="preserve">
<g>
	<g>
		<rect x="74.885" y="10" style="fill:#FFF9E6;" width="352.231" height="482"/>
		<path d="M427.115,502H74.885c-5.523,0-10-4.477-10-10V10c0-5.523,4.477-10,10-10h352.23c5.522,0,10,4.477,10,10v482
			C437.115,497.523,432.638,502,427.115,502z M84.885,482h332.23V20H84.885V482z"/>
	</g>
	<g>
		<g>
			<path d="M149.462,154.565c1.953,1.953,4.512,2.929,7.071,2.929s5.119-0.976,7.071-2.929l52.011-52.011
				c3.905-3.905,3.905-10.237,0-14.143c-3.905-3.905-10.237-3.905-14.143,0l-44.939,44.939l-20.507-20.507
				c-3.905-3.905-10.237-3.905-14.143,0c-3.905,3.905-3.905,10.237,0,14.143L149.462,154.565z"/>
			<path d="M201.473,219.726l-44.939,44.939l-20.507-20.507c-3.905-3.905-10.237-3.905-14.143,0c-3.905,3.905-3.905,10.237,0,14.143
				l27.579,27.579c1.953,1.953,4.512,2.929,7.071,2.929s5.119-0.976,7.071-2.929l52.011-52.011c3.905-3.905,3.905-10.237,0-14.143
				C211.71,215.82,205.378,215.82,201.473,219.726z"/>
			<path d="M201.473,347.435l-44.939,44.939l-20.507-20.507c-3.905-3.905-10.237-3.905-14.143,0c-3.905,3.905-3.905,10.237,0,14.143
				l27.579,27.579c1.953,1.953,4.512,2.929,7.071,2.929s5.119-0.976,7.071-2.929l52.011-52.011c3.905-3.905,3.905-10.237,0-14.143
				C211.71,343.53,205.378,343.53,201.473,347.435z"/>
		</g>
		<g>
			<path d="M373.045,153.889H257.694c-5.522,0-10-4.477-10-10s4.478-10,10-10h115.351c5.522,0,10,4.477,10,10
				S378.567,153.889,373.045,153.889z"/>
		</g>
		<g>
			<path d="M324.639,116.297h-66.944c-5.522,0-10-4.477-10-10s4.478-10,10-10h66.944c5.522,0,10,4.477,10,10
				S330.161,116.297,324.639,116.297z"/>
		</g>
		<g>
			<path d="M373.56,116.297h-13.389c-5.522,0-10-4.477-10-10s4.478-10,10-10h13.389c5.522,0,10,4.477,10,10
				S379.082,116.297,373.56,116.297z"/>
		</g>
		<g>
			<path d="M373.045,285.203H257.694c-5.522,0-10-4.477-10-10s4.478-10,10-10h115.351c5.522,0,10,4.477,10,10
				S378.567,285.203,373.045,285.203z"/>
		</g>
		<g>
			<path d="M324.639,247.611h-66.944c-5.522,0-10-4.477-10-10s4.478-10,10-10h66.944c5.522,0,10,4.477,10,10
				S330.161,247.611,324.639,247.611z"/>
		</g>
		<g>
			<path d="M373.56,247.611h-13.389c-5.522,0-10-4.477-10-10s4.478-10,10-10h13.389c5.522,0,10,4.477,10,10
				S379.082,247.611,373.56,247.611z"/>
		</g>
		<g>
			<path d="M373.045,412.397H257.694c-5.522,0-10-4.477-10-10s4.478-10,10-10h115.351c5.522,0,10,4.477,10,10
				S378.567,412.397,373.045,412.397z"/>
		</g>
		<g>
			<path d="M324.639,374.806h-66.944c-5.522,0-10-4.477-10-10s4.478-10,10-10h66.944c5.522,0,10,4.477,10,10
				S330.161,374.806,324.639,374.806z"/>
		</g>
		<g>
			<path d="M373.56,374.806h-13.389c-5.522,0-10-4.477-10-10s4.478-10,10-10h13.389c5.522,0,10,4.477,10,10
				S379.082,374.806,373.56,374.806z"/>
		</g>
	</g>
</g>
<g>
</g>
<g>
</g>
<g>
</g>
<g>
</g>
<g>
</g>
<g>
</g>
<g>
</g>
<g>
</g>
<g>
</g>
<g>
</g>
<g>
</g>
<g>
</g>
<g>
</g>
<g>
</g>
<g>
</g>
</svg>
